<?xml version="1.0" encoding="UTF-8" standalone="no"?>
<svg width="150" height="150" xmlns="http://www.w3.org/2000/svg">
  <defs>
    <linearGradient id="dialGradient" x1="0%" y1="0%" x2="100%" y2="100%">
      <stop offset="0%" stop-color="#f0f0f0"/>
      <stop offset="60%" stop-color="#d8d8d8"/>
      <stop offset="100%" stop-color="#c0c0c0"/>
    </linearGradient>
    <linearGradient id="needleGradient" x1="0%" y1="0%" x2="100%" y2="0%">
      <stop offset="0%" stop-color="#cc3300"/>
      <stop offset="50%" stop-color="#ee5522"/>
      <stop offset="100%" stop-color="#cc3300"/>
    </linearGradient>
    <filter id="dropShadow" x="-20%" y="-20%" width="140%" height="140%">
      <feGaussianBlur in="SourceAlpha" stdDeviation="2"/>
      <feOffset dx="1" dy="1" result="offsetblur"/>
      <feComponentTransfer>
        <feFuncA type="linear" slope="0.3"/>
      </feComponentTransfer>
      <feMerge>
        <feMergeNode/>
        <feMergeNode in="SourceGraphic"/>
      </feMerge>
    </filter>
  </defs>
  
  <!-- Outer Ring -->
  <circle cx="75" cy="75" r="65" fill="none" stroke="#888" stroke-width="3" filter="url(#dropShadow)"/>
  
  <!-- Dial Background -->
  <circle cx="75" cy="75" r="60" fill="url(#dialGradient)" stroke="#aaa" stroke-width="1" filter="url(#dropShadow)"/>
  
  <!-- Accent Ring -->
  <circle cx="75" cy="75" r="48" fill="none" stroke="#3366aa" stroke-width="2" opacity="0.5"/>
  
  <!-- Major Tick Marks -->
  <g stroke="#555" stroke-width="2">
    <path d="M 75 25 L 75 30" transform="rotate(0 75 75)"/>
    <path d="M 75 25 L 75 30" transform="rotate(45 75 75)"/>
    <path d="M 75 25 L 75 30" transform="rotate(90 75 75)"/>
    <path d="M 75 25 L 75 30" transform="rotate(135 75 75)"/>
    <path d="M 75 25 L 75 30" transform="rotate(180 75 75)"/>
    <path d="M 75 25 L 75 30" transform="rotate(225 75 75)"/>
    <path d="M 75 25 L 75 30" transform="rotate(270 75 75)"/>
    <path d="M 75 25 L 75 30" transform="rotate(315 75 75)"/>
  </g>
  
  <!-- Subtle Minor Tick Marks -->
  <g stroke="#888" stroke-width="1" opacity="0.7">
    <path d="M 75 25 L 75 28" transform="rotate(22.5 75 75)"/>
    <path d="M 75 25 L 75 28" transform="rotate(67.5 75 75)"/>
    <path d="M 75 25 L 75 28" transform="rotate(112.5 75 75)"/>
    <path d="M 75 25 L 75 28" transform="rotate(157.5 75 75)"/>
    <path d="M 75 25 L 75 28" transform="rotate(202.5 75 75)"/>
    <path d="M 75 25 L 75 28" transform="rotate(247.5 75 75)"/>
    <path d="M 75 25 L 75 28" transform="rotate(292.5 75 75)"/>
    <path d="M 75 25 L 75 28" transform="rotate(337.5 75 75)"/>
  </g>
  
  <!-- Elegant Number Labels -->
  <text x="75" y="35" font-family="Arial, sans-serif" font-size="10" font-weight="bold" fill="#444" text-anchor="middle">50</text>
  <text x="115" y="75" font-family="Arial, sans-serif" font-size="10" font-weight="bold" fill="#444" text-anchor="middle">125</text>
  <text x="75" y="122" font-family="Arial, sans-serif" font-size="10" font-weight="bold" fill="#444" text-anchor="middle">200</text>
  <text x="35" y="75" font-family="Arial, sans-serif" font-size="10" font-weight="bold" fill="#444" text-anchor="middle">275</text>
  
  <!-- Amperage Range Arcs -->
  <path d="M 75 75 m 0 -43 a 43 43 0 0 1 43 43" fill="none" stroke="#6699cc" stroke-width="6" opacity="0.2" stroke-linecap="round"/>
  <path d="M 75 75 m 43 0 a 43 43 0 0 1 -43 43" fill="none" stroke="#66cc99" stroke-width="6" opacity="0.2" stroke-linecap="round"/>
  <path d="M 75 75 m 0 43 a 43 43 0 0 1 -43 -43" fill="none" stroke="#cc9966" stroke-width="6" opacity="0.2" stroke-linecap="round"/>
  
  <!-- Needle -->
  <g transform="rotate(125 75 75)">
    <path d="M 75 35 L 72 75 L 78 75 Z" fill="url(#needleGradient)" stroke="#aa2200" stroke-width="0.5"/>
    <circle cx="75" cy="75" r="5" fill="url(#needleGradient)" stroke="#aa2200" stroke-width="0.5"/>
  </g>
  
  <!-- Center Cap -->
  <circle cx="75" cy="75" r="15" fill="#333" stroke="#222" stroke-width="1" filter="url(#dropShadow)"/>
  <circle cx="75" cy="75" r="12" fill="#222" stroke="#111" stroke-width="0.5"/>
  <text x="75" y="79" font-family="Arial, sans-serif" font-size="8" fill="#fff" text-anchor="middle" font-weight="bold">AMPS</text>
  
  <!-- Electrode Size Labels -->
  <g opacity="0.9">
    <path d="M 32 40 L 45 40 A 5 5 0 0 1 45 50 L 32 50 Z" fill="#3366aa" stroke="#224488" stroke-width="1" filter="url(#dropShadow)"/>
    <text x="38" y="47" font-family="Arial, sans-serif" font-size="8" fill="#fff" text-anchor="middle">1/8"</text>
    
    <path d="M 110 110 L 123 110 A 5 5 0 0 1 123 120 L 110 120 Z" fill="#339966" stroke="#227755" stroke-width="1" filter="url(#dropShadow)"/>
    <text x="116" y="117" font-family="Arial, sans-serif" font-size="8" fill="#fff" text-anchor="middle">3/16"</text>
  </g>
</svg>
