<?xml version="1.0" encoding="UTF-8" standalone="no"?>
<svg width="150" height="150" xmlns="http://www.w3.org/2000/svg">
  <defs>
    <linearGradient id="rodGradient" x1="0%" y1="0%" x2="100%" y2="100%">
      <stop offset="0%" stop-color="#bbbbbb"/>
      <stop offset="100%" stop-color="#888888"/>
    </linearGradient>
    <linearGradient id="fluxGradient" x1="0%" y1="0%" x2="100%" y2="100%">
      <stop offset="0%" stop-color="#cc9966"/>
      <stop offset="100%" stop-color="#996633"/>
    </linearGradient>
    <linearGradient id="fluxGradient2" x1="0%" y1="0%" x2="100%" y2="100%">
      <stop offset="0%" stop-color="#99cc99"/>
      <stop offset="100%" stop-color="#669966"/>
    </linearGradient>
    <linearGradient id="fluxGradient3" x1="0%" y1="0%" x2="100%" y2="100%">
      <stop offset="0%" stop-color="#9999cc"/>
      <stop offset="100%" stop-color="#666699"/>
    </linearGradient>
  </defs>
  
  <!-- Background Element -->
  <rect x="10" y="10" width="130" height="130" rx="10" ry="10" fill="#f9f9f9" opacity="0.3"/>
  
  <!-- First Electrode -->
  <g transform="translate(40, 45) rotate(45)">
    <rect x="-7.5" y="-40" width="15" height="80" rx="2" ry="2" fill="url(#fluxGradient)" stroke="#664422" stroke-width="1"/>
    <rect x="-2.5" y="-45" width="5" height="20" rx="0" ry="0" fill="url(#rodGradient)" stroke="#555" stroke-width="0.5"/>
    <text x="-20" y="-30" font-family="Arial, sans-serif" font-size="11" fill="#fff" text-anchor="middle" transform="rotate(-45)">E6010</text>
  </g>
  
  <!-- Second Electrode -->
  <g transform="translate(75, 40) rotate(20)">
    <rect x="-8.5" y="-37" width="17" height="74" rx="2" ry="2" fill="url(#fluxGradient2)" stroke="#336633" stroke-width="1"/>
    <rect x="-3" y="-42" width="6" height="18" rx="0" ry="0" fill="url(#rodGradient)" stroke="#555" stroke-width="0.5"/>
    <text x="-18" y="-22" font-family="Arial, sans-serif" font-size="11" fill="#fff" text-anchor="middle" transform="rotate(-20)">E7018</text>
  </g>
  
  <!-- Third Electrode -->
  <g transform="translate(110, 45) rotate(-10)">
    <rect x="-7" y="-35" width="14" height="70" rx="2" ry="2" fill="url(#fluxGradient3)" stroke="#444477" stroke-width="1"/>
    <rect x="-2.5" y="-40" width="5" height="15" rx="0" ry="0" fill="url(#rodGradient)" stroke="#555" stroke-width="0.5"/>
    <text x="15" y="-15" font-family="Arial, sans-serif" font-size="11" fill="#fff" text-anchor="middle" transform="rotate(10)">E6013</text>
  </g>
  
  <!-- Selection Indicator -->
  <g transform="translate(75, 110)">
    <rect x="-40" y="-10" width="80" height="20" rx="5" ry="5" fill="#2244aa" stroke="#001166" stroke-width="1"/>
    <text x="0" y="5" font-family="Arial, sans-serif" font-size="12" fill="#fff" text-anchor="middle" font-weight="bold">SELECT TYPE</text>
  </g>
  
  <!-- Size Indicators -->
  <circle cx="40" cy="140" r="3.5" fill="#888" stroke="#555" stroke-width="0.5"/>
  <text x="40" y="135" font-family="Arial, sans-serif" font-size="8" fill="#333" text-anchor="middle">3/32"</text>
  
  <circle cx="75" cy="140" r="4.5" fill="#888" stroke="#555" stroke-width="0.5"/>
  <text x="75" y="135" font-family="Arial, sans-serif" font-size="8" fill="#333" text-anchor="middle">1/8"</text>
  
  <circle cx="110" cy="140" r="5.5" fill="#888" stroke="#555" stroke-width="0.5"/>
  <text x="110" y="135" font-family="Arial, sans-serif" font-size="8" fill="#333" text-anchor="middle">5/32"</text>
</svg>
