<?xml version="1.0" encoding="UTF-8" standalone="no"?>
<svg width="150" height="150" xmlns="http://www.w3.org/2000/svg">
  <defs>
    <linearGradient id="metalGradient" x1="0%" y1="0%" x2="100%" y2="100%">
      <stop offset="0%" stop-color="#e0e0e0"/>
      <stop offset="50%" stop-color="#b0b0b0"/>
      <stop offset="100%" stop-color="#909090"/>
    </linearGradient>
    
    <linearGradient id="weldGradient" x1="0%" y1="0%" x2="100%" y2="100%">
      <stop offset="0%" stop-color="#cc9966"/>
      <stop offset="50%" stop-color="#aa7744"/>
      <stop offset="100%" stop-color="#886633"/>
    </linearGradient>
    
    <linearGradient id="crackGradient" x1="0%" y1="0%" x2="100%" y2="0%">
      <stop offset="0%" stop-color="#333333"/>
      <stop offset="50%" stop-color="#444444"/>
      <stop offset="100%" stop-color="#222222"/>
    </linearGradient>
    
    <filter id="dropShadow" x="-20%" y="-20%" width="140%" height="140%">
      <feGaussianBlur in="SourceAlpha" stdDeviation="2"/>
      <feOffset dx="1" dy="1" result="offsetblur"/>
      <feComponentTransfer>
        <feFuncA type="linear" slope="0.5"/>
      </feComponentTransfer>
      <feMerge>
        <feMergeNode/>
        <feMergeNode in="SourceGraphic"/>
      </feMerge>
    </filter>
    
    <filter id="glow" x="-30%" y="-30%" width="160%" height="160%">
      <feGaussianBlur stdDeviation="2" result="blur"/>
      <feComposite in="SourceGraphic" in2="blur" operator="over"/>
    </filter>
  </defs>
  
  <!-- Background Plate -->
  <rect x="5" y="30" width="140" height="90" rx="3" ry="3" fill="url(#metalGradient)" stroke="#666" stroke-width="1" filter="url(#dropShadow)"/>
  
  <!-- Main Weld Bead -->
  <path d="M 20 75 C 30 68, 45 72, 55 75 C 65 78, 80 73, 90 75 C 100 77, 120 70, 130 75" 
    fill="url(#weldGradient)" stroke="#886633" stroke-width="1" filter="url(#dropShadow)"/>
  
  <!-- Defect 1: Porosity -->
  <g transform="translate(35, 75)">
    <circle cx="0" cy="0" r="4" fill="#333" stroke="#222" stroke-width="0.5"/>
    <circle cx="5" cy="-2" r="3" fill="#333" stroke="#222" stroke-width="0.5"/>
    <circle cx="-3" cy="2" r="2" fill="#333" stroke="#222" stroke-width="0.5"/>
    
    <!-- Label -->
    <text x="0" y="14" font-family="Arial, sans-serif" font-size="7" fill="#aa3333" text-anchor="middle" font-weight="bold">POROSITY</text>
  </g>
  
  <!-- Defect 2: Undercut -->
  <g transform="translate(60, 75)">
    <path d="M -8 -4 C -5 -8, 0 -8, 5 -4 C 10 0, 15 0, 18 -4" 
      fill="none" stroke="#666" stroke-width="2"/>
      
    <!-- Label -->
    <text x="0" y="14" font-family="Arial, sans-serif" font-size="7" fill="#aa3333" text-anchor="middle" font-weight="bold">UNDERCUT</text>
  </g>
  
  <!-- Defect 3: Crack -->
  <g transform="translate(90, 75)">
    <path d="M -5 -5 C -3 -2, -4 0, -2 2 C 0 4, -1 6, 1 8 C 3 10, 2 12, 5 15" 
      fill="none" stroke="url(#crackGradient)" stroke-width="1.5" filter="url(#glow)"/>
    <path d="M -5 -5 C -3 -2, -4 0, -2 2 C 0 4, -1 6, 1 8 C 3 10, 2 12, 5 15" 
      fill="none" stroke="#000" stroke-width="0.5"/>
    
    <!-- Label -->
    <text x="0" y="24" font-family="Arial, sans-serif" font-size="7" fill="#aa3333" text-anchor="middle" font-weight="bold">CRACK</text>
  </g>
  
  <!-- Defect 4: Slag Inclusion -->
  <g transform="translate(115, 75)">
    <ellipse cx="0" cy="0" rx="6" ry="2.5" fill="#111" stroke="#000" stroke-width="0.5"/>
    <path d="M -4 0 C -2 -1, 2 -1, 4 0" fill="none" stroke="#333" stroke-width="1"/>
    
    <!-- Label -->
    <text x="0" y="14" font-family="Arial, sans-serif" font-size="7" fill="#aa3333" text-anchor="middle" font-weight="bold" transform="scale(0.8, 1)">SLAG INCLUSION</text>
  </g>
  
  <!-- Title -->
  <rect x="25" y="10" width="100" height="20" rx="10" ry="10" fill="#003366" stroke="#001133" stroke-width="1" opacity="0.9" filter="url(#dropShadow)"/>
  <text x="75" y="24" font-family="Arial, sans-serif" font-size="11" fill="#ffffff" text-anchor="middle" font-weight="bold">WELD DEFECTS</text>
  
  <!-- Defect 5: Lack of Fusion -->
  <g transform="translate(15, 60)">
    <path d="M 0 0 L 15 0" stroke="#666" stroke-width="2"/>
    <path d="M 0 0 C 5 -3, 10 -3, 15 0" fill="none" stroke="url(#weldGradient)" stroke-width="3"/>
    <path d="M 5 -1 L 10 -1" stroke="#111" stroke-width="1"/>
    
    <!-- Label -->
    <text x="8" y="14" font-family="Arial, sans-serif" font-size="7" fill="#aa3333" text-anchor="middle" font-weight="bold" transform="scale(0.7, 1)">LACK OF FUSION</text>
  </g>
  
  <!-- Inspection Arrows -->
  <g stroke="#3366aa" stroke-width="1" fill="none">
    <path d="M 10 120 C 30 140, 60 140, 90 120" stroke-dasharray="2,1" marker-end=""/>
    <path d="M 140 120 C 120 140, 90 140, 60 120" stroke-dasharray="2,1" marker-end=""/>
  </g>
  <text x="75" y="145" font-family="Arial, sans-serif" font-size="9" fill="#3366aa" text-anchor="middle" font-style="italic">Inspection Points</text>
</svg>
