<?xml version="1.0" encoding="UTF-8" standalone="no"?>
<svg width="150" height="150" xmlns="http://www.w3.org/2000/svg">
  <defs>
    <linearGradient id="helmetGradient" x1="0%" y1="0%" x2="100%" y2="100%">
      <stop offset="0%" stop-color="#444444"/>
      <stop offset="100%" stop-color="#222222"/>
    </linearGradient>
    <linearGradient id="visorGradient" x1="0%" y1="0%" x2="0%" y2="100%">
      <stop offset="0%" stop-color="#3366cc" stop-opacity="0.7"/>
      <stop offset="100%" stop-color="#224488" stop-opacity="0.7"/>
    </linearGradient>
    <linearGradient id="gloveGradient" x1="0%" y1="0%" x2="100%" y2="100%">
      <stop offset="0%" stop-color="#bb7722"/>
      <stop offset="100%" stop-color="#995511"/>
    </linearGradient>
    <linearGradient id="jacketGradient" x1="0%" y1="0%" x2="100%" y2="100%">
      <stop offset="0%" stop-color="#775533"/>
      <stop offset="100%" stop-color="#553311"/>
    </linearGradient>
    <filter id="dropShadow" x="-20%" y="-20%" width="140%" height="140%">
      <feGaussianBlur in="SourceAlpha" stdDeviation="1.5"/>
      <feOffset dx="1" dy="1" result="offsetblur"/>
      <feComponentTransfer>
        <feFuncA type="linear" slope="0.3"/>
      </feComponentTransfer>
      <feMerge>
        <feMergeNode/>
        <feMergeNode in="SourceGraphic"/>
      </feMerge>
    </filter>
  </defs>
  
  <!-- Background Circle -->
  <circle cx="75" cy="75" r="65" fill="none" stroke="#888" stroke-width="1" opacity="0.5"/>
  
  <!-- Welding Helmet -->
  <g transform="translate(75, 52)" filter="url(#dropShadow)">
    <!-- Helmet Body -->
    <path d="M -30 -20 C -35 -10, -35 15, -30 25 L 30 25 C 35 15, 35 -10, 30 -20 L 20 -30 L -20 -30 Z" 
          fill="url(#helmetGradient)" stroke="#111" stroke-width="1"/>
    
    <!-- Visor -->
    <rect x="-25" y="-10" width="50" height="25" rx="5" ry="5" 
          fill="url(#visorGradient)" stroke="#111" stroke-width="1"/>
    
    <!-- Helmet Accent Lines -->
    <path d="M -28 -18 L 28 -18" stroke="#666" stroke-width="1" fill="none"/>
    <path d="M -28 22 L 28 22" stroke="#666" stroke-width="1" fill="none"/>
    
    <!-- Headstrap Suggestion -->
    <path d="M -30 5 C -25 8, -20 10, 0 10 C 20 10, 25 8, 30 5" 
          stroke="#555" stroke-width="1.5" fill="none" opacity="0.7" stroke-dasharray="2,1"/>
  </g>
  
  <!-- Safety Glasses -->
  <g transform="translate(35, 95)" filter="url(#dropShadow)">
    <path d="M -15 -5 C -12 -8, -5 -8, 0 -5 C 5 -8, 12 -8, 15 -5 C 18 -2, 18 2, 15 5 C 12 8, 5 8, 0 5 C -5 8, -12 8, -15 5 C -18 2, -18 -2, -15 -5 Z" 
          fill="#d0d0d0" stroke="#888" stroke-width="1" opacity="0.9"/>
    <path d="M -10 0 C -8 -2, -4 -2, 0 0 C 4 -2, 8 -2, 10 0 C 12 2, 12 4, 10 6 C 8 8, 4 6, 0 4 C -4 6, -8 8, -10 6 C -12 4, -12 2, -10 0 Z" 
          fill="#99ccff" stroke="#6699cc" stroke-width="0.5" opacity="0.7"/>
  </g>
  
  <!-- Welding Glove -->
  <g transform="translate(115, 95)">
    <path d="M -10 -15 L -15 0 C -17 10, -15 15, -10 20 L 5 20 C 10 15, 12 10, 10 0 L 5 -15 Z" 
          fill="url(#gloveGradient)" stroke="#773300" stroke-width="1" filter="url(#dropShadow)"/>
    <path d="M -10 -15 L 5 -15 M -12 0 L 7 0 M -7 20 L 2 20" 
          stroke="#995511" stroke-width="0.5" fill="none"/>
    <path d="M -5 -5 C 0 -6, 2 -3, 0 0 M -3 5 C 2 4, 4 7, 2 10" 
          stroke="#995511" stroke-width="0.5" fill="none"/>
  </g>
  
  <!-- Welding Jacket (Simplified) -->
  <g transform="translate(75, 125)" filter="url(#dropShadow)">
    <path d="M -30 -10 C -25 -5, -20 -3, 0 -3 C 20 -3, 25 -5, 30 -10 L 25 15 L -25 15 Z" 
          fill="url(#jacketGradient)" stroke="#553311" stroke-width="1"/>
    <path d="M -15 -3 L -10 15 M 15 -3 L 10 15" 
          stroke="#664422" stroke-width="0.5" fill="none"/>
    <path d="M -25 0 L -30 0 M 25 0 L 30 0" 
          stroke="#664422" stroke-width="0.5" fill="none"/>
  </g>
  
  <!-- Safety First Text -->
  <g transform="translate(75, 20)">
    <rect x="-38" y="-12" width="76" height="24" rx="12" ry="12" 
          fill="#cc3333" stroke="#aa2222" stroke-width="1" filter="url(#dropShadow)"/>
    <text x="0" y="5" font-family="Arial, sans-serif" font-size="12" font-weight="bold" 
          fill="#ffffff" text-anchor="middle">SAFETY FIRST</text>
  </g>
</svg>
