<?xml version="1.0" encoding="UTF-8" standalone="no"?>
<svg width="500" height="300" xmlns="http://www.w3.org/2000/svg">
  
  <!-- Gradient Definitions -->
  <defs>
    <linearGradient id="metalGradient" x1="0%" y1="0%" x2="100%" y2="100%">
      <stop offset="0%" stop-color="#d9d9d9"/>
      <stop offset="50%" stop-color="#a0a0a0"/>
      <stop offset="100%" stop-color="#7b7b7b"/>
    </linearGradient>
    
    <linearGradient id="arcGradient" x1="0%" y1="0%" x2="0%" y2="100%">
      <stop offset="0%" stop-color="#ffff99"/>
      <stop offset="50%" stop-color="#ffbb33"/>
      <stop offset="100%" stop-color="#ff8800"/>
    </linearGradient>
    
    <linearGradient id="weldPoolGradient" x1="0%" y1="0%" x2="100%" y2="100%">
      <stop offset="0%" stop-color="#ff8800"/>
      <stop offset="50%" stop-color="#cc5500"/>
      <stop offset="100%" stop-color="#883300"/>
    </linearGradient>
    
    <linearGradient id="fluxGradient" x1="0%" y1="0%" x2="100%" y2="100%">
      <stop offset="0%" stop-color="#cc9966"/>
      <stop offset="100%" stop-color="#996633"/>
    </linearGradient>
    
    <filter id="arcGlow" x="-50%" y="-50%" width="200%" height="200%">
      <feGaussianBlur stdDeviation="8" result="blur"/>
      <feComposite in="SourceGraphic" in2="blur" operator="over"/>
    </filter>
  </defs>
  
  <!-- Welding Process - Simplified -->
  <g transform="translate(250, 150)">
    <!-- Base Metal -->
    <rect x="-180" y="25" width="360" height="40" rx="3" ry="3" fill="url(#metalGradient)" stroke="#444" stroke-width="2"/>
    
    <!-- Weld Bead -->
    <path d="M -60 25 C -40 15, -20 15, 0 25 C 20 15, 40 15, 60 25" fill="url(#metalGradient)" stroke="#555" stroke-width="1"/>
    
    <!-- Electrode -->
    <line x1="0" y1="-100" x2="0" y2="-40" stroke="#888" stroke-width="10" stroke-linecap="round"/>
    <line x1="0" y1="-40" x2="0" y2="-10" stroke="url(#fluxGradient)" stroke-width="15" stroke-linecap="round"/>
    
    <!-- Arc -->
    <ellipse cx="0" cy="-5" rx="25" ry="30" fill="url(#arcGradient)" filter="url(#arcGlow)" opacity="0.9"/>
    <ellipse cx="0" cy="-5" rx="13" ry="15" fill="#ffffff" opacity="0.8"/>
    
    <!-- Weld Pool -->
    <ellipse cx="0" cy="25" rx="35" ry="12" fill="url(#weldPoolGradient)" opacity="0.7"/>
    
    <!-- Sparks -->
    <circle cx="-20" cy="-20" r="3" fill="#ffcc00"/>
    <circle cx="15" cy="-15" r="2" fill="#ffcc00"/>
    <circle cx="25" cy="-10" r="2.5" fill="#ffcc00"/>
    <circle cx="-25" cy="-5" r="2" fill="#ffcc00"/>
    <circle cx="10" cy="-25" r="1.5" fill="#ffcc00"/>
    
    <!-- Electrode Holder - Simplified -->
    <rect x="-15" y="-120" width="30" height="20" rx="3" ry="3" fill="#333" stroke="#222"/>
    <path d="M -15 -110 C -30 -115, -35 -125, -40 -130" stroke="#222" stroke-width="4" stroke-linecap="round"/>
    
    <!-- Ground Clamp - Simplified -->
    <rect x="100" y="45" width="40" height="20" rx="3" ry="3" fill="#333" stroke="#222"/>
    <path d="M 120 45 C 100 20, 60 30, 40 25" stroke="#222" stroke-width="4" stroke-linecap="round"/>
  </g>
</svg>
